<?xml version="1.0" encoding="utf-8"?>
<!-- Generator: Adobe Illustrator 20.1.0, SVG Export Plug-In . SVG Version: 6.00 Build 0)  -->
<svg version="1.1" id="Layer_1" xmlns="http://www.w3.org/2000/svg" xmlns:xlink="http://www.w3.org/1999/xlink" x="0px" y="0px"
	 viewBox="0 0 207.6 52.8" style="enable-background:new 0 0 207.6 52.8;" xml:space="preserve">
<style type="text/css">
	.st0{fill:none;stroke:#FFFFFF;stroke-width:3;stroke-miterlimit:10;}
	.st1{fill:#FFFFFF;}
</style>
<path class="st0" d="M194.9,51.3H12.7c-6.2,0-11.2-5-11.2-11.2V12.7c0-6.2,5-11.2,11.2-11.2h182.2c6.2,0,11.2,5,11.2,11.2v27.5
	C206.1,46.3,201.1,51.3,194.9,51.3z"/>
<g>
	<path class="st1" d="M29.9,37.1v-3.6c-0.6,1-1.1,1.8-1.7,2.2c-0.6,0.5-1.2,0.9-1.9,1.1c-0.7,0.3-1.6,0.4-2.8,0.4
		c-0.6,0-1.2-0.1-1.7-0.2c-0.6-0.1-1.1-0.3-1.7-0.5c-0.5-0.2-1.1-0.5-1.6-0.8c-0.5-0.3-1-0.7-1.4-1.1c-1-1-1.8-2.3-2.4-3.6
		c-0.6-1.4-0.9-2.9-0.9-4.5c0-1,0.1-2,0.4-2.9c0.2-0.9,0.6-1.8,1-2.6c0.4-0.8,1-1.6,1.6-2.2c0.6-0.7,1.3-1.2,2.1-1.7
		c0.8-0.5,1.6-0.8,2.5-1.1c0.9-0.3,1.8-0.4,2.8-0.4c1.1,0,2.1,0.1,2.9,0.4c0.8,0.3,1.7,0.8,2.6,1.6h3.1v4.7h-4.3
		c-0.4-0.7-0.8-1.1-1.2-1.4c-0.4-0.3-0.8-0.5-1.2-0.7s-1.1-0.3-1.9-0.3c-0.8,0-1.5,0.2-2.2,0.5s-1.3,0.8-1.7,1.4
		c-0.5,0.6-0.9,1.3-1.2,2.1c-0.3,0.8-0.4,1.7-0.4,2.5c0,0.8,0.1,1.7,0.4,2.4c0.3,0.8,0.6,1.5,1.1,2.1c0.5,0.6,1.1,1.1,1.8,1.4
		c0.7,0.3,1.4,0.5,2.2,0.5c1,0,1.9-0.3,2.6-0.9c0.7-0.6,1.3-1.4,1.6-2.4h-4v-3.8h9.8v11.3H29.9z"/>
	<path class="st1" d="M48.4,37.5c-1,0-1.9-0.1-2.8-0.4c-0.9-0.3-1.7-0.6-2.5-1.1c-0.8-0.5-1.5-1-2.1-1.7c-0.6-0.7-1.2-1.4-1.6-2.2
		s-0.8-1.7-1-2.6c-0.2-0.9-0.4-1.9-0.4-2.9s0.1-2,0.4-2.9c0.2-0.9,0.6-1.8,1-2.6c0.4-0.8,1-1.6,1.6-2.2c0.6-0.7,1.3-1.2,2.1-1.7
		c0.8-0.5,1.6-0.8,2.5-1.1s1.8-0.4,2.8-0.4s1.9,0.1,2.8,0.4c0.9,0.3,1.7,0.6,2.5,1.1c0.8,0.5,1.5,1,2.1,1.7s1.2,1.4,1.6,2.2
		c0.4,0.8,0.8,1.7,1,2.6c0.2,0.9,0.4,1.9,0.4,2.9c0,1-0.1,2-0.4,2.9c-0.2,0.9-0.6,1.8-1,2.6c-0.4,0.8-1,1.6-1.6,2.2
		c-0.6,0.7-1.3,1.2-2.1,1.7c-0.8,0.5-1.6,0.8-2.5,1.1C50.3,37.4,49.4,37.5,48.4,37.5z M48.4,33.1c0.8,0,1.6-0.2,2.2-0.5
		c0.7-0.3,1.3-0.8,1.7-1.4c0.5-0.6,0.9-1.3,1.1-2.1c0.3-0.8,0.4-1.6,0.4-2.5c0-0.9-0.1-1.8-0.4-2.6s-0.7-1.5-1.1-2.1
		c-0.5-0.6-1.1-1.1-1.7-1.4c-0.7-0.3-1.4-0.5-2.2-0.5c-0.8,0-1.5,0.2-2.2,0.5c-0.7,0.4-1.2,0.8-1.7,1.4c-0.5,0.6-0.9,1.3-1.1,2.1
		c-0.3,0.8-0.4,1.7-0.4,2.6c0,0.9,0.1,1.7,0.4,2.5c0.3,0.8,0.7,1.5,1.1,2.1c0.5,0.6,1.1,1.1,1.7,1.4C46.9,32.9,47.6,33.1,48.4,33.1z
		"/>
	<path class="st1" d="M70.1,15.9h16.4v7.2H82v-3h-5v4.5h4.4v4.1H77v4.6h2.2v3.8h-9.1v-3.8h2.2V20.2h-2.2V15.9z"/>
	<path class="st1" d="M99.2,37.5c-1,0-1.9-0.1-2.8-0.4c-0.9-0.3-1.7-0.6-2.5-1.1c-0.8-0.5-1.5-1-2.1-1.7c-0.6-0.7-1.2-1.4-1.6-2.2
		s-0.8-1.7-1-2.6c-0.2-0.9-0.4-1.9-0.4-2.9s0.1-2,0.4-2.9c0.2-0.9,0.6-1.8,1-2.6c0.4-0.8,1-1.6,1.6-2.2c0.6-0.7,1.3-1.2,2.1-1.7
		c0.8-0.5,1.6-0.8,2.5-1.1s1.8-0.4,2.8-0.4s1.9,0.1,2.8,0.4c0.9,0.3,1.7,0.6,2.5,1.1c0.8,0.5,1.5,1,2.1,1.7s1.2,1.4,1.6,2.2
		c0.4,0.8,0.8,1.7,1,2.6c0.2,0.9,0.4,1.9,0.4,2.9c0,1-0.1,2-0.4,2.9c-0.2,0.9-0.6,1.8-1,2.6c-0.4,0.8-1,1.6-1.6,2.2
		c-0.6,0.7-1.3,1.2-2.1,1.7c-0.8,0.5-1.6,0.8-2.5,1.1C101,37.4,100.1,37.5,99.2,37.5z M99.2,33.1c0.8,0,1.6-0.2,2.2-0.5
		c0.7-0.3,1.3-0.8,1.7-1.4c0.5-0.6,0.9-1.3,1.1-2.1c0.3-0.8,0.4-1.6,0.4-2.5c0-0.9-0.1-1.8-0.4-2.6s-0.7-1.5-1.1-2.1
		c-0.5-0.6-1.1-1.1-1.7-1.4c-0.7-0.3-1.4-0.5-2.2-0.5c-0.8,0-1.5,0.2-2.2,0.5c-0.7,0.4-1.2,0.8-1.7,1.4c-0.5,0.6-0.9,1.3-1.1,2.1
		c-0.3,0.8-0.4,1.7-0.4,2.6c0,0.9,0.1,1.7,0.4,2.5c0.3,0.8,0.7,1.5,1.1,2.1c0.5,0.6,1.1,1.1,1.7,1.4C97.6,32.9,98.3,33.1,99.2,33.1z
		"/>
	<path class="st1" d="M113.7,15.9h11.2c1.1,0,2.1,0.2,2.9,0.5s1.6,0.8,2.2,1.3c0.6,0.5,1,1.2,1.4,1.9c0.3,0.7,0.5,1.5,0.5,2.3
		c0,0.7-0.1,1.3-0.2,1.9c-0.2,0.5-0.4,1-0.7,1.4c-0.3,0.4-0.7,0.8-1.1,1.1c-0.4,0.3-0.9,0.6-1.5,0.9c0.5,0.2,0.9,0.6,1.3,1.1
		c0.4,0.5,0.6,1.1,0.8,1.9l0.7,2.8h1.7l0,4.1h-6.2l-0.8-5c-0.1-0.6-0.2-1.1-0.4-1.5c-0.2-0.4-0.4-0.8-0.7-1.1
		c-0.3-0.3-0.6-0.5-1.1-0.6c-0.4-0.1-0.9-0.2-1.5-0.2h-1.8v4.6h1.9v3.8h-8.8v-3.8h2.2V19.8h-2.2V15.9z M120.5,19.8v5.1h2.8
		c0.5,0,1,0,1.4-0.1c0.4-0.1,0.8-0.3,1.1-0.5c0.3-0.2,0.5-0.5,0.7-0.8c0.2-0.3,0.2-0.7,0.2-1.1c0-0.8-0.3-1.5-0.9-1.9
		c-0.6-0.5-1.5-0.7-2.6-0.7H120.5z"/>
	<path class="st1" d="M140.1,33.3h2.2V19.6h-2.6v2.7h-4.6v-6.5h19.3v6.5h-4.6v-2.7H147v13.7h2.2v3.8h-9.1V33.3z"/>
	<path class="st1" d="M172.1,15.9h9.1v3.8H179v13.5h2.2v3.8h-9.1v-3.8h2.2v-5.4h-9.6v5.4h2.2v3.8h-9.1v-3.8h2.2V19.8h-2.2v-3.8h9.1
		v3.8h-2.2v4.4h9.6v-4.4h-2.2V15.9z"/>
	<path class="st1" d="M186.2,15.1h5.2L190.8,30h-4L186.2,15.1z M186.2,35.1c0-0.3,0.1-0.7,0.2-1c0.1-0.3,0.3-0.6,0.5-0.8
		c0.2-0.2,0.5-0.4,0.8-0.5c0.3-0.1,0.6-0.2,1-0.2c0.3,0,0.7,0.1,1,0.2c0.3,0.1,0.6,0.3,0.8,0.5c0.2,0.2,0.4,0.5,0.5,0.8
		c0.1,0.3,0.2,0.6,0.2,1c0,0.3-0.1,0.7-0.2,1c-0.1,0.3-0.3,0.6-0.5,0.8c-0.2,0.2-0.5,0.4-0.8,0.5c-0.3,0.1-0.6,0.2-1,0.2
		c-0.4,0-0.7-0.1-1-0.2c-0.3-0.1-0.6-0.3-0.8-0.5c-0.2-0.2-0.4-0.5-0.5-0.8C186.2,35.8,186.2,35.4,186.2,35.1z"/>
</g>
</svg>
