<?xml version="1.0" encoding="utf-8"?>
<!-- Generator: Adobe Illustrator 20.1.0, SVG Export Plug-In . SVG Version: 6.00 Build 0)  -->
<svg version="1.1" id="Layer_1" xmlns="http://www.w3.org/2000/svg" xmlns:xlink="http://www.w3.org/1999/xlink" x="0px" y="0px"
	 viewBox="0 0 1000 722" style="enable-background:new 0 0 1000 722;" xml:space="preserve">
<style type="text/css">
	.st0{fill:#CDCFD0;}
</style>
<g>
	<path class="st0" d="M306.6,111.4l9.2,36.6l-5.2,3.8l5.7,7.8l19.9-14.5l-5.7-7.8l-5.3,3.8l-1.5-5.6l16.5-12l4.9,3.2l-5.3,3.8
		l5.7,7.8l20.4-14.9l-5.7-7.8l-5.3,3.9L314,94.1l-18.5,13.5l5.7,7.8L306.6,111.4z M321,125.5l-4.6-17.2l15,9.6L321,125.5z"/>
	<polygon class="st0" points="374.8,70.9 387.2,103.5 380.5,106 384,115.1 426.1,99.1 419.7,82.2 409.4,86.1 412.4,94 398.1,99.4 
		385.7,66.7 393.6,63.7 390.1,54.7 364.7,64.3 368.2,73.4 	"/>
	<path class="st0" d="M449.9,48.9l3.8,34.7l-7,0.8l1,9.6l27.4-3l-1-9.6l-8.7,0.9l-0.9-8.7l6.5-0.7c7.4-0.8,12.9-3.3,16.5-7.4
		c3-3.5,4.4-8,3.8-12.8c-0.5-4.8-2.8-9-6.5-11.7c-4.3-3.3-10.3-4.5-17.7-3.7l-25.2,2.7l1,9.6L449.9,48.9z M461.6,47.7l6.9-0.7
		c3.6-0.4,6.4,0.2,8.3,1.7c1.9,1.6,2.6,3.8,2.7,5.4c0.2,1.6,0.1,3.9-1.5,5.9c-1.5,1.9-4.1,3.1-7.7,3.5l-6.9,0.7L461.6,47.7z"/>
	<polygon class="st0" points="544.8,83.6 537.7,82.8 541.7,48 548.7,48.8 549.8,39.2 524.1,36.3 523,45.9 530,46.7 526.1,81.4 
		519.1,80.6 518,90.2 543.7,93.2 	"/>
	<polygon class="st0" points="595.1,96.8 588.5,94.3 597.8,69.6 608.7,112.2 618.2,115.9 634,74.2 640.6,76.7 644,67.6 620.3,58.6 
		616.9,67.7 623.5,70.2 614.7,93.3 604.7,53.1 604.6,52.7 587.2,46.1 583.7,55.1 590.3,57.6 578,90.3 571.4,87.8 567.9,96.8 
		591.7,105.8 	"/>
	<polygon class="st0" points="691,143.6 682.2,137 677.5,143.3 665,134 672.7,123.7 688.5,135.6 694.3,127.9 678.5,116 686,106 
		698.2,115.2 693.7,121.2 702.5,127.8 712.8,114 676.8,87 671,94.7 676.7,99 655.7,126.9 650,122.7 644.2,130.4 680.5,157.6 	"/>
	<path class="st0" d="M998.5,284.5c-2.1-3.7-6-6-10.3-6H851.3h0c-27.4-117-111.9-212.2-222.4-254.7c0,0,0-0.1,0-0.1l0,0
		c-4.5-1.7-9.1-3.4-13.7-5l0,0.1c-18-6.1-36.7-10.8-55.8-14c-0.1,0-0.3,0-0.4-0.1c-4.7-0.8-9.5-1.5-14.3-2.1c0,0,0,0-0.1,0
		c-4.5-0.6-9.1-1-13.7-1.4c-0.5,0-1-0.1-1.5-0.1c-4.4-0.4-8.8-0.6-13.2-0.8c-0.9,0-1.7-0.1-2.6-0.1c-4.5-0.2-9-0.3-13.5-0.3
		c0,0,0,0,0,0c0,0,0,0,0,0c-4.5,0-9,0.1-13.5,0.3c-0.9,0-1.7,0.1-2.6,0.1c-4.4,0.2-8.9,0.5-13.3,0.8c-0.5,0-1,0.1-1.5,0.1
		c-4.6,0.4-9.1,0.8-13.7,1.4c0,0,0,0,0,0c-4.8,0.6-9.6,1.3-14.3,2.1c-0.1,0-0.3,0-0.4,0.1c-19.2,3.2-37.8,7.9-55.8,14l0-0.1
		c-4.6,1.6-9.2,3.2-13.7,5l0,0c0,0,0,0.1,0,0.1c-110.5,42.4-195,137.7-222.4,254.7h0H11.8c-4.2,0-8.2,2.3-10.3,6
		c-2.1,3.7-2,8.3,0.2,11.9c10.9,17.9,26.7,32.1,45,41.4c-3.3,0.7-6.3,2.7-8,5.7c-2.1,3.7-2,8.3,0.2,11.9
		c10.9,18,26.8,32.2,45.1,41.4c-3.1,0.8-5.9,2.8-7.5,5.6c-2.1,3.7-2,8.3,0.2,11.9c11.9,19.6,29.7,34.7,50.2,43.8
		c-1.1,0.9-2.1,2-2.9,3.3c-2.1,3.7-2,8.3,0.2,11.9c12,19.7,29.9,34.9,50.5,43.9c0.1,0,0.1,0.1,0.2,0.1
		C226.1,622.8,327.1,700,447.3,717.6c0.2,0,0.4,0.1,0.6,0.1c3.8,0.6,7.7,1,11.5,1.5c0.5,0.1,1.1,0.1,1.6,0.2c4,0.4,8.1,0.8,12.2,1.1
		c0.4,0,0.9,0.1,1.3,0.1c3.5,0.2,7,0.4,10.6,0.6c1,0,2,0.1,3,0.1c4,0.1,7.9,0.2,11.9,0.2c0,0,0,0,0,0c4,0,8-0.1,11.9-0.2
		c1,0,2-0.1,3-0.1c3.5-0.1,7.1-0.3,10.6-0.6c0.4,0,0.9-0.1,1.3-0.1c4.1-0.3,8.1-0.7,12.2-1.1c0.6-0.1,1.1-0.1,1.7-0.2
		c3.9-0.4,7.7-0.9,11.5-1.5c0.2,0,0.4-0.1,0.6-0.1C672.9,700,774,622.8,825,517.2c0.1,0,0.1-0.1,0.2-0.1
		c20.6-9.1,38.5-24.3,50.5-43.9c2.2-3.6,2.3-8.2,0.2-11.9c-0.7-1.3-1.7-2.3-2.9-3.3c20.5-9.1,38.2-24.2,50.2-43.8
		c2.2-3.6,2.3-8.2,0.2-11.9c-1.6-2.9-4.4-4.9-7.5-5.6c18.4-9.3,34.2-23.5,45.1-41.4c2.2-3.6,2.3-8.2,0.2-11.9c-1.7-3-4.7-5-8-5.7
		c18.3-9.3,34.1-23.4,45-41.4C1000.5,292.7,1000.6,288.2,998.5,284.5z M371.5,37c1.9-0.8,3.8-1.5,5.8-2.3c2-0.7,3.9-1.5,5.9-2.2
		c36.5-13.1,75.9-20.2,116.8-20.2s80.3,7.2,116.8,20.2c2,0.7,4,1.4,5.9,2.2c1.9,0.7,3.9,1.5,5.8,2.3
		c103.8,41.4,183.2,131.2,209.9,241.4h-45.3c-13.1-46.7-37.5-90.1-70.8-125.7l-9.6,9c31.1,33.2,54,73.4,66.8,116.8h-47.4
		C698.3,183,607,114.4,500,114.4S301.8,183,267.8,278.5h-47.4c12.8-43.6,36-84,67.3-117.3l-9.5-9c-33.6,35.7-58.2,79.3-71.4,126.3
		h-45.3C188.3,168.2,267.7,78.4,371.5,37z M508.3,509.2c-9.8,0-19.3-1.4-28.2-4.1c-0.4-0.1-0.8-0.2-1.2-0.3
		c-2.1-0.6-4.2-1.4-6.2-2.1c-2.1-0.8-4.2-1.7-6.2-2.6c-15.7-7.3-29.3-18.5-39.3-32.4c-1-1.3-1.9-2.7-2.8-4.1
		c-0.5-0.7-0.9-1.4-1.3-2.1c-1.2-2-2.4-4.1-3.5-6.2c-7.2-13.8-11.3-29.5-11.3-46.1c0-0.2,0-0.3,0-0.5c0-2.1,0.1-4.1,0.2-6.2
		c0.1-2.1,0.3-4.1,0.6-6.2c2.2-17.3,8.9-33.2,18.8-46.6c1.6-2.1,3.3-4.2,5-6.2c1.3-1.5,2.6-3,4-4.4l3,4.4l4.2,6.2l31.8,46.6l4.2,6.2
		l4.2,6.2l14,20.4c2,2.9,5.1,4.7,8.5,5.1c0.5,0.1,0.9,0.2,1.4,0.2c0.5,0,0.9-0.1,1.4-0.2c3.4-0.4,6.6-2.2,8.5-5.1l14-20.4l4.1-6
		l0.1-0.1l3.5-5.1l0.7-1l31.8-46.6l4.2-6.2l3-4.4c1.4,1.4,2.7,2.9,4,4.4c1.7,2,3.4,4.1,5,6.2c9.9,13.4,16.5,29.3,18.8,46.6
		c0.3,2,0.5,4.1,0.6,6.2c0.1,2,0.2,4.1,0.2,6.2c0,0.2,0,0.3,0,0.5c0,16.6-4.1,32.3-11.3,46.1c-1.1,2.1-2.3,4.2-3.5,6.2
		c-0.1,0.2-0.3,0.4-0.4,0.6c-1.2,1.9-2.4,3.7-3.7,5.5c-13.2,18.2-32.3,31.8-54.5,37.9c-0.4,0.1-0.9,0.3-1.3,0.4
		c-2,0.5-4.1,1-6.2,1.4c-2,0.4-4.1,0.7-6.2,1C516.9,508.9,512.6,509.2,508.3,509.2z M515.6,521.4v72.8c-5.1,0.3-10.3,0.6-15.5,0.6
		c0,0,0,0,0,0v-73.5c2.7,0.2,5.5,0.3,8.3,0.3C510.7,521.6,513.1,521.5,515.6,521.4z M585,278.5v-15.7c0-26.7-11.5-52.1-31.5-69.8
		c-17-15-38.9-23.3-61.6-23.3h-8.2c-22.7,0-44.6,8.3-61.6,23.3c-10.3,9.1-18.6,20.6-24,33.1l-3.1,7.1l7.6,1.4
		c7.3,1.3,13.9,4.9,19.1,10.3c6.4,6.6,9.8,15.3,9.8,24.4v9.2H281c33.4-88.5,118.9-151.7,219-151.7c100.1,0,185.6,63.2,219,151.7H585
		z M723.3,290.9c4.7,14.9,7.9,30.5,9.5,46.6H594.7c-3-3.6-6.3-7-9.7-10.3v-36.3H723.3z M430.6,236.3c-0.4-0.4-0.8-0.7-1.2-1.1
		c6.5,1.7,13.7,4.8,21,10.4c11.8,9,24.7,25,34.7,53.7c0.7,1.9,1.3,3.9,1.9,5.9c0.6,1.9,1.2,3.9,1.8,6c2.3,7.9,4.3,16.7,6.1,26.4
		c0.2,0.9,0.3,1.8,0.5,2.7c0.2,1.2,0.4,2.3,0.6,3.5c0.4,2.5,0.8,5,1.2,7.6c1.9,13.5,3.4,28.4,4.2,45.2c0.1,1.4,0.1,2.8,0.2,4.2
		c0,0.6,0,1.2,0.1,1.9c0,0,0,0.1,0,0.1c0.1,1.8,0.1,3.5,0.2,5.3c0,0.3,0,0.5,0,0.8c0,0,0,0.1,0,0.1c0,1.2,0.1,2.5,0.1,3.7l-2.5-3.7
		l-0.1-0.2l-0.4-0.5l-3.7-5.5l-4.1-6.1l-0.1-0.1l-31.8-46.6l-4.2-6.2l-4.2-6.2l-4.5-6.5l-2.2-3.2v-2.9v-7.6v-26.3v-6.2v-6.2v-9.2
		C443.9,256.9,439.2,245.2,430.6,236.3z M501.3,309.4c-0.6-2-1.1-4.1-1.7-6.1c-0.6-2.1-1.3-4.1-2-6.1c-9.4-28.2-22.8-48.9-40.1-61.9
		c-4.5-3.4-9-6-13.4-8.1c30.2-2.6,55.9,3.1,76.8,17c14.2,9.5,24.6,21.8,32.2,34.1c1.3,2.1,2.5,4.1,3.6,6.2c1.1,2.1,2.2,4.1,3.2,6.2
		c4.3,8.8,7.2,17.2,9.1,23.9c1,3.5,1.8,6.6,2.3,9.1c0.4,1.8,0.7,3.2,0.9,4.3l-1.9,2.8l-4.5,6.5l-4.2,6.2l-4.2,6.2l-31.8,46.6
		l-4.2,6.2l-4.2,6.2l-2.9,4.3c0-1.4,0-2.9-0.1-4.3c-0.1-2.1-0.2-4.1-0.2-6.2c-0.1-2.1-0.1-4.2-0.2-6.2c-0.8-16.7-2.2-32.2-4.2-46.6
		c-0.3-2.1-0.6-4.2-0.9-6.2c-0.3-2.1-0.7-4.1-1.1-6.2C505.8,327.5,503.7,318.1,501.3,309.4z M570.9,284.7c-1-2-2.1-4.1-3.2-6.2
		c-8.6-15.6-21.2-32-39.7-44.3c-29.5-19.7-67.2-24.6-112.2-14.9c4-6.3,8.9-12.1,14.6-17c14.8-13,33.7-20.2,53.4-20.2h8.2
		c19.7,0,38.6,7.2,53.4,20.2c17.4,15.3,27.3,37.4,27.3,60.5v15.7v6.2v3.8C572.1,287.2,571.5,285.9,570.9,284.7z M431.5,290.9v36.3
		c-3.4,3.2-6.7,6.6-9.7,10.3H267.2c1.6-16.1,4.8-31.6,9.5-46.6H431.5z M412.9,349.8c-8.6,13.8-14.4,29.6-16.3,46.6H268.8
		c-1.8-11.6-2.7-23.5-2.7-35.6c0-3.7,0.1-7.3,0.3-10.9H412.9z M395.9,408.7c0,0.2,0,0.3,0,0.5c0,16.4,3.6,32,9.9,46.1l0,0H286.1
		c-6.6-14.8-11.7-30.4-15.1-46.6H395.9z M409.9,467.7l19.3,46.6H323.7c-12.3-14.1-23-29.8-31.6-46.6H409.9z M434.2,526.6l26.8,64.8
		c-48.7-8.2-92.3-31.4-125.8-64.8H434.2z M447.6,526.6l-2.6-6.2l-2.6-6.2l-8.6-20.9c9.6,8.5,20.6,15.3,32.7,20.2
		c2,0.8,4,1.6,6.1,2.2c2,0.7,3.9,1.3,5.9,1.8c3,0.8,6,1.5,9.1,2.1v74.4l-12.4-0.9c0,0,0,0,0,0L447.6,526.6z M527.9,525.5v-5.6
		c0.6-0.1,1.3-0.2,1.9-0.3c6.3-1.2,12.5-3,18.4-5.3c12.1-4.6,23.2-11.3,32.9-19.5l-8.1,19.5l-2.6,6.2l-2.6,6.2l-26.6,64.3
		c-0.4,0.1-0.7,0.1-1.1,0.2l-12.3,1.7V525.5z M581.3,526.6h83.5c-29.6,29.4-67.1,51-108.9,61.3L581.3,526.6z M586.4,514.3l19.3-46.6
		H708c-8.7,16.8-19.3,32.4-31.6,46.6H586.4z M610.8,455.3c6.4-14.1,9.9-29.7,9.9-46.1c0-0.2,0-0.3,0-0.5H729
		c-3.4,16.2-8.5,31.8-15.1,46.6H610.8z M619.9,396.4c-1.9-16.9-7.7-32.8-16.3-46.6h130.1c0.2,3.6,0.3,7.3,0.3,10.9
		c0,12.1-0.9,24-2.7,35.6H619.9z M12.9,290.9h133.2h0h6.3h6.3h105.1c-4.4,15-7.5,30.6-9,46.6H152.5h-6.2h-6.3h0H96.8
		C62.9,337.4,30.8,319.6,12.9,290.9z M50.1,349.8h46.8h42.6h0h6.3h6.2h102c-0.2,3.6-0.3,7.3-0.3,10.9c0,12.1,0.9,24,2.6,35.6H153.5
		h-6.2H141h0h-7C100.1,396.4,68.1,378.6,50.1,349.8z M87.9,408.7h46.1h8.4h0h6.3h6.2h103.4c3.2,16.1,8,31.7,14.2,46.6H171.9
		c-2.4,0-4.8-0.1-7.2-0.3c-2.2-0.2-4.5-0.4-6.7-0.7c-2.3-0.3-4.5-0.7-6.8-1.2c0,0,0,0-0.1,0C125.3,447.4,102.2,431.5,87.9,408.7z
		 M175.7,503.9c-3-1.5-6-3.1-8.8-4.9c0,0-0.1-0.1-0.1-0.1c-12.5-7.9-23.2-18.4-31.2-31.2h19.9h0.1h6.5h6.6h3.4h106.2
		c8.1,16.7,18,32.3,29.4,46.6h-88.1c-12.2,0-24.1-2.3-35.2-6.6C181.3,506.6,178.5,505.3,175.7,503.9z M500,709.1
		c-133.5,0-249.6-75.5-308.1-186c8.9,2.3,18.2,3.5,27.5,3.5h22.7c9.6,15.3,20.6,29.8,32.7,43.1l9.7-8.8
		c-9.8-10.7-18.7-22.2-26.8-34.3h60.3c38.6,42.4,91.8,71.1,151.6,78.5c0.3,0.1,0.5,0.2,0.8,0.2l1.2,0.1c7.1,0.8,14.4,1.3,21.7,1.5
		l0,0c0,0,0,0,0,0c0.1,0,0.3,0,0.4,0c0,0,0,0,0,0c2.1,0.1,4.1,0.2,6.2,0.2c7.3,0,14.4-0.4,21.6-1c0.1,0,0.1,0,0.2,0
		c0.3,0,0.6,0,0.8-0.1l0.8-0.1c6.8-0.6,13.5-1.6,20.1-2.8l3.1-0.4c0.5-0.1,0.9-0.2,1.3-0.4c52.6-10.4,99.3-37.6,134.2-75.8h60.3
		c-8,11.9-16.9,23.4-26.5,34l9.7,8.8c12-13.3,23-27.7,32.5-42.8h22.7c9.4,0,18.6-1.2,27.5-3.5C749.7,633.6,633.5,709.1,500,709.1z
		 M833.4,498.9c0,0-0.1,0.1-0.1,0.1c-2.9,1.8-5.8,3.4-8.8,4.9c-2.8,1.4-5.7,2.6-8.6,3.8c-11.1,4.3-23,6.6-35.2,6.6h-88.1
		c11.4-14.3,21.4-29.9,29.4-46.6h106.2h3.4h6.6h6.5h0.1h19.9C856.6,480.5,845.8,491,833.4,498.9z M848.8,453
		C848.8,453.1,848.8,453.1,848.8,453c-2.3,0.5-4.5,0.9-6.8,1.2c-2.2,0.3-4.4,0.6-6.7,0.7c-2.4,0.2-4.8,0.3-7.2,0.3H727.5
		c6.2-14.8,11-30.4,14.2-46.6H845h6.2h6.3h0h8.4h46.1C897.9,431.5,874.7,447.4,848.8,453z M866,396.4h-7h0h-6.2h-6.2H743.8
		c1.7-11.6,2.6-23.5,2.6-35.6c0-3.7-0.1-7.3-0.3-10.9h102h6.2h6.3h0h42.6H950C932,378.6,899.9,396.4,866,396.4z M903.2,337.4H860h0
		h-6.3h-6.2H745.2c-1.5-16-4.6-31.6-9-46.6h105.1h6.3h6.3h0h133.2C969.2,319.6,937.1,337.4,903.2,337.4z"/>
	<polygon class="st0" points="316.5,590.7 324.9,580 336.4,589 331.4,595.3 340,602.1 351,588.1 316.2,560.7 310.2,568.3 
		315.8,572.7 294.2,600.1 288.6,595.7 282.7,603.3 303.3,619.6 309.3,612 303.4,607.4 310.4,598.5 325,610 331.1,602.3 	"/>
	<path class="st0" d="M385.5,606.9l0-0.6L365,596.1l-4.3,8.7l6,3l-28.2,25l-5.8-2.9l-4.3,8.6l22,10.9l4.3-8.7l-5.8-2.9l4.3-3.9
		l18.3,9.1l-0.5,5.8l-5.8-2.9l-4.3,8.7l22.6,11.2l4.3-8.7l-5.9-2.9L385.5,606.9z M374,615l-1.6,17.8l-11.6-5.7L374,615z"/>
	<polygon class="st0" points="436.8,670.1 422,666.4 430.3,632.5 438.4,634.5 440.8,625.1 414.4,618.6 412.1,628 418.9,629.7 
		410.6,663.6 403.7,661.9 401.4,671.3 445.1,682 449.5,664.5 438.8,661.8 	"/>
	<path class="st0" d="M495.4,630.5c-17.5-0.6-29.2,10.3-29.8,27.5c-0.3,8.5,2.3,15.6,7.3,20.7c5,5,12.2,7.8,21,8.1
		c0.5,0,0.9,0,1.4,0c8.6,0,15.2-2.5,18.4-4.1l0.5-0.2l0.4-11.6l-1.3,0.7c-4.2,2.3-10.8,5.1-18.1,4.8c-5.3-0.2-9.7-1.9-12.7-5
		c-3.2-3.2-4.8-8-4.6-13.6c0.4-11.2,7.2-17.6,17.9-17.3c3.1,0.1,6.4,0.8,8.6,1.4l-0.3,9.9l11.3,0.4l0.5-16.5l-0.5-0.2
		C511.9,633.7,504,630.7,495.4,630.5z"/>
	<path class="st0" d="M553.2,625.3c-7.8,1.6-14.3,5.7-18.3,11.7c-4,6-5.4,13.6-3.8,21.5c1.6,7.9,5.7,14.4,11.8,18.3
		c4.3,2.9,9.5,4.4,15,4.4c2.1,0,4.2-0.2,6.4-0.6c7.8-1.6,14.3-5.7,18.3-11.6c4.1-6,5.4-13.6,3.8-21.5
		C583.1,631.1,569.5,622,553.2,625.3z M549.9,668.2c-3.6-2.6-6.1-6.8-7.1-12.1c-2.1-10.6,2.8-19,12.4-20.9c1.1-0.2,2.3-0.3,3.4-0.3
		c3.2,0,6.3,1,8.9,2.8c3.6,2.6,6.1,6.8,7.2,12.1c2.1,10.6-2.9,19-12.4,20.9C557.6,671.5,553.4,670.7,549.9,668.2z"/>
	<polygon class="st0" points="648.5,600.7 644.4,592 621.5,602.9 625.6,611.6 632,608.6 642.7,630.9 606.3,610.1 589.5,618.2 
		593.6,626.9 600,623.8 615.1,655.4 608.7,658.4 612.8,667.1 635.7,656.2 631.6,647.5 625.2,650.5 613.8,626.7 652.1,648.4 
		661.3,644 642.1,603.7 	"/>
	<path class="st0" d="M683.3,588.5c-6.4,2.4-10.4,3.7-12.9,0.6c-1.2-1.5-1.3-3.1-0.4-5c0.8-1.6,2.3-3.4,4.4-5.1
		c1.8-1.4,3.9-2.7,5.4-3.6l4.5,5.6l8.5-6.7l-8.9-11.2l-0.6,0.2c-4.1,1.5-10.2,4.4-15.1,8.3c-4.5,3.6-7.6,7.6-8.9,11.7
		c-1.5,4.8-0.6,9.5,2.8,13.7c7.1,9,16.4,5.4,23.9,2.5c5.8-2.2,10.7-4.1,13.6-0.5c2.3,3,0.9,6.6-4.3,10.7c-2.8,2.2-5.4,3.6-7,4.3
		l-4.4-5.5l-8.4,6.6l9.1,11.5l0.6-0.3c5.2-2.3,11.2-5.2,16.6-9.4c4.7-3.7,7.8-7.6,9.1-11.6c1.6-4.8,0.7-9.5-2.8-13.9
		C700.7,581.9,691,585.6,683.3,588.5z"/>
</g>
</svg>
