<?xml version="1.0" encoding="utf-8"?>
<!-- Generator: Adobe Illustrator 20.1.0, SVG Export Plug-In . SVG Version: 6.00 Build 0)  -->
<svg version="1.1" id="Layer_1" xmlns="http://www.w3.org/2000/svg" xmlns:xlink="http://www.w3.org/1999/xlink" x="0px" y="0px"
	 viewBox="0 0 55.1 55.2" style="enable-background:new 0 0 55.1 55.2;" xml:space="preserve">
<style type="text/css">
	.st0{fill:#CDCFD0;}
</style>
<path id="White_2_" class="st0" d="M52.2,0H3C1.4,0,0,1.4,0,3v49.1c0,1.7,1.4,3,3,3h26.4V33.8h-7.2v-8.3h7.2v-6.1
	c0-7.1,4.4-11,10.7-11c3,0,5.7,0.2,6.4,0.3v7.5l-4.4,0c-3.5,0-4.1,1.6-4.1,4.1v5.3h8.3l-1.1,8.3h-7.2v21.4h14.1c1.7,0,3-1.4,3-3V3
	C55.2,1.4,53.9,0,52.2,0z"/>
</svg>
