<?xml version="1.0" encoding="utf-8"?>
<!-- Generator: Adobe Illustrator 20.1.0, SVG Export Plug-In . SVG Version: 6.00 Build 0)  -->
<svg version="1.1" id="Layer_1" xmlns="http://www.w3.org/2000/svg" xmlns:xlink="http://www.w3.org/1999/xlink" x="0px" y="0px"
	 viewBox="0 0 55.1 55.2" style="enable-background:new 0 0 55.1 55.2;" xml:space="preserve">
<style type="text/css">
	.st0{fill:#CDCFD0;}
</style>
<g>
	<path class="st0" d="M27.6,5c7.4,0,8.2,0,11.2,0.2c2.7,0.1,4.2,0.6,5.1,1c1.3,0.5,2.2,1.1,3.2,2.1c1,1,1.6,1.9,2.1,3.2
		c0.4,1,0.8,2.4,1,5.1c0.1,2.9,0.2,3.8,0.2,11.2s0,8.2-0.2,11.2c-0.1,2.7-0.6,4.2-1,5.1c-0.5,1.3-1.1,2.2-2.1,3.2
		c-1,1-1.9,1.6-3.2,2.1c-1,0.4-2.4,0.8-5.1,1c-2.9,0.1-3.8,0.2-11.2,0.2s-8.2,0-11.2-0.2c-2.7-0.1-4.2-0.6-5.1-1
		C10,48.6,9.1,48,8.2,47.1c-1-1-1.6-1.9-2.1-3.2c-0.4-1-0.8-2.4-1-5.1C5,35.9,5,35,5,27.6s0-8.2,0.2-11.2c0.1-2.7,0.6-4.2,1-5.1
		C6.6,10,7.2,9.1,8.2,8.2c1-1,1.9-1.6,3.2-2.1c1-0.4,2.4-0.8,5.1-1C19.4,5,20.2,5,27.6,5 M27.6,0c-7.5,0-8.4,0-11.4,0.2
		c-2.9,0.1-4.9,0.6-6.7,1.3C7.7,2.2,6.2,3.1,4.6,4.6C3.1,6.2,2.2,7.7,1.4,9.5c-0.7,1.8-1.1,3.8-1.3,6.7C0,19.2,0,20.1,0,27.6
		C0,35.1,0,36,0.2,39c0.1,2.9,0.6,4.9,1.3,6.7c0.7,1.8,1.6,3.4,3.2,4.9c1.5,1.5,3.1,2.5,4.9,3.2c1.8,0.7,3.8,1.1,6.7,1.3
		c2.9,0.1,3.9,0.2,11.4,0.2s8.4,0,11.4-0.2c2.9-0.1,4.9-0.6,6.7-1.3c1.8-0.7,3.4-1.6,4.9-3.2c1.5-1.5,2.5-3.1,3.2-4.9
		c0.7-1.8,1.1-3.8,1.3-6.7c0.1-2.9,0.2-3.9,0.2-11.4s0-8.4-0.2-11.4c-0.1-2.9-0.6-4.9-1.3-6.7c-0.7-1.8-1.6-3.4-3.2-4.9
		c-1.5-1.5-3.1-2.5-4.9-3.2c-1.8-0.7-3.8-1.1-6.7-1.3C36,0,35.1,0,27.6,0L27.6,0z"/>
	<path class="st0" d="M27.6,13.4c-7.8,0-14.2,6.3-14.2,14.2s6.3,14.2,14.2,14.2s14.2-6.3,14.2-14.2S35.4,13.4,27.6,13.4z M27.6,36.8
		c-5.1,0-9.2-4.1-9.2-9.2s4.1-9.2,9.2-9.2c5.1,0,9.2,4.1,9.2,9.2S32.7,36.8,27.6,36.8z"/>
	<circle class="st0" cx="42.3" cy="12.9" r="3.3"/>
</g>
</svg>
